<svg xmlns="http://www.w3.org/2000/svg" xmlns:xlink="http://www.w3.org/1999/xlink" width="22.562" height="20" viewBox="0 0 22.562 20"><defs><style>.a{fill:#e48b35;}.b{clip-path:url(#a);}.c{fill:#29337a;}.d{fill:#fff;}.e{fill:#d32030;}.f{fill:#252f6c;}.g{fill:#e7e7e7;}.h{fill:#d71f28;}.i{fill:#e51d35;}</style><clipPath id="a"><path class="a" d="M-900.728,0a1.74,1.74,0,0,1,1.5.865l4.805,8.261a1.739,1.739,0,0,1,0,1.749l-4.805,8.261a1.74,1.74,0,0,1-1.5.865H-910.2a1.74,1.74,0,0,1-1.5-.865l-4.805-8.261a1.739,1.739,0,0,1,0-1.749L-911.7.865A1.74,1.74,0,0,1-910.2,0Z" transform="translate(2177.183 28)"/></clipPath></defs><g class="b" transform="translate(-1260.437 -28)"><g transform="translate(1261 27)"><g transform="translate(0.362 0.44)"><path class="c" d="M9.369,102.641a10.952,10.952,0,0,0-1.575,3.428h5Z" transform="translate(-7.794 -98.314)"/><path class="c" d="M99.172,9.48A10.96,10.96,0,0,0,95.7,11.206l3.475,3.475Z" transform="translate(-91.614 -9.48)"/><path class="c" d="M101.261,364.959a10.945,10.945,0,0,0,3.216,1.542v-4.758Z" transform="translate(-96.92 -345.382)"/><path class="c" d="M10.512,306.771a10.959,10.959,0,0,0,1.633,3.243l3.243-3.243Z" transform="translate(-10.386 -292.963)"/></g><g transform="translate(0.16 0.209)"><path class="d" d="M5.407,97.144q-.092.126-.182.255l3.428,3.428h-5c-.081.309-.147.623-.2.942h6.585Z" transform="translate(-3.448 -92.841)"/><path class="d" d="M95.767,336.463c.084.062.17.122.255.181l3.216-3.216v4.758c.309.09.623.168.942.231V332.05Z" transform="translate(-91.479 -316.837)"/><path class="d" d="M5.25,286.487c.068.319.149.634.244.942h4.877l-3.243,3.243A11.074,11.074,0,0,0,8.3,292.025l5.538-5.538Z" transform="translate(-5.166 -273.39)"/><path class="d" d="M71.624,4.737v5.2L68.15,6.463a11.062,11.062,0,0,0-1.342,1.18L72.566,13.4v-8.9C72.247,4.569,71.933,4.647,71.624,4.737Z" transform="translate(-63.865 -4.506)"/></g><g transform="translate(7.886 8.163)"><path class="e" d="M169.833,306.056l-.033.033h.033Z" transform="translate(-169.8 -300.004)"/><path class="e" d="M190.084,285.806h.033v-.033Z" transform="translate(-189.142 -280.663)"/><path class="e" d="M280.577,196.737h-.032v.032Z" transform="translate(-275.401 -195.762)"/><path class="e" d="M170.543,175.787l-.032-.033v.033Z" transform="translate(-170.478 -175.754)"/><path class="e" d="M190.794,196.037v.033h.033Z" transform="translate(-189.819 -195.095)"/></g><g transform="translate(13.972 0.41)"><path class="f" d="M300.825,376.166v2.466a10.937,10.937,0,0,0,3.261-1.528l-2.672-2.672A8.661,8.661,0,0,1,300.825,376.166Z" transform="translate(-300.825 -357.451)"/><path class="f" d="M301.427,13.446l2.917-2.917a10.958,10.958,0,0,0-3.52-1.712v2.533A9.754,9.754,0,0,1,301.427,13.446Z" transform="translate(-300.824 -8.818)"/><path class="f" d="M359.123,310.078a10.969,10.969,0,0,0,1.679-3.307h-4.986Z" transform="translate(-353.262 -292.933)"/><path class="f" d="M360.9,104.757a10.948,10.948,0,0,0-1.621-3.492l-3.493,3.492Z" transform="translate(-353.236 -96.971)"/></g><g transform="translate(13.03 0.19)"><path class="g" d="M327.638,286.677l.756.756,3.618,3.618c.082-.1.164-.205.242-.311l-3.307-3.307h4.986q.143-.462.244-.942h-6.468C327.7,286.625,327.651,286.544,327.638,286.677Z" transform="translate(-325.451 -273.375)"/><path class="g" d="M311.288,49.14l3.279-3.28c-.082-.064-.164-.127-.248-.189L311.4,48.589C311.433,48.7,311.26,49.022,311.288,49.14Z" transform="translate(-309.857 -43.741)"/><path class="g" d="M281.483,6.637V4.307q-.463-.13-.942-.22V5.224A6.085,6.085,0,0,1,281.483,6.637Z" transform="translate(-280.541 -4.087)"/><path class="g" d="M321.908,77.379h6.7c-.054-.319-.121-.633-.2-.942H323.29l3.493-3.492a11.055,11.055,0,0,0-1.142-1.379L321.707,75.5C321.813,76.212,321.86,76.627,321.908,77.379Z" transform="translate(-319.795 -68.431)"/><path class="g" d="M310.088,330.565l2.831,2.831a11.033,11.033,0,0,0,1.328-1.077l-3.724-3.724A19.116,19.116,0,0,1,310.088,330.565Z" transform="translate(-308.716 -313.523)"/><path class="g" d="M280.545,413.181v1.267q.479-.089.942-.22v-2.466A6.118,6.118,0,0,1,280.545,413.181Z" transform="translate(-280.545 -392.829)"/></g><path class="h" d="M315.7,54.681l3.934-3.934a11,11,0,0,0-1.135-1.014l-3.091,3.091C315.542,53.4,315.6,54.056,315.7,54.681Z" transform="translate(-300.756 -47.423)"/><g transform="translate(10.451)"><path class="e" d="M225.019.014q.275-.013.549-.014Q225.292,0,225.019.014Z" transform="translate(-225.019)"/><path class="e" d="M225.575,473.395c-.183,0-.366-.005-.549-.014Q225.3,473.395,225.575,473.395Z" transform="translate(-225.026 -451.395)"/><path class="e" d="M236.836,443.758a11.023,11.023,0,0,0,2.03-.19V442.3C238.288,442.927,237.612,443.758,236.836,443.758Z" transform="translate(-236.287 -421.758)"/></g><g transform="translate(14.837 9.137)"><path class="h" d="M333.872,196.737h-6.61a29.554,29.554,0,0,1-.032,4.168h6.558a10.973,10.973,0,0,0,.084-4.168Z" transform="translate(-326.869 -196.737)"/><path class="h" d="M319.836,290.5c-.061.65-.274,1.156-.38,1.77l3.724,3.724a11.106,11.106,0,0,0,1.03-1.119l-3.618-3.618Z" transform="translate(-319.456 -286.145)"/></g><path class="e" d="M238.866,1.408V.19a11.053,11.053,0,0,0-2.03-.19C237.612,0,238.288.782,238.866,1.408Z" transform="translate(-225.836 0)"/><g transform="translate(13.972 2.4)"><path class="c" d="M300.825,364.55a11.849,11.849,0,0,0,.766-2.032l-.766-.766Z" transform="translate(-300.825 -347.35)"/><path class="c" d="M301.687,54.056a12.375,12.375,0,0,0-.862-2.379v3.241Z" transform="translate(-300.825 -51.677)"/></g><g transform="translate(13.03 0.987)"><path class="d" d="M324.029,286.887c.012-.133.024-.266.035-.4h-.434Z" transform="translate(-321.628 -274.168)"/><path class="d" d="M281.483,25.9V22.658a6.083,6.083,0,0,0-.942-1.413v6.033l1.892-1.892c-.028-.118-.058-.234-.088-.349Z" transform="translate(-280.541 -21.245)"/><path class="d" d="M281.229,151.46h2.435c-.048-.752-.124-1.492-.23-2.205Z" transform="translate(-281.197 -143.31)"/><path class="d" d="M280.545,297.24a6.091,6.091,0,0,0,.942-1.413v-2.8l.766.766a18.96,18.96,0,0,0,.442-1.963l-2.151-2.151v7.559Z" transform="translate(-280.545 -277.214)"/></g><path class="i" d="M13.03,21.013V13.454L15.18,15.6c.106-.613.189-1.249.25-1.9l-.4-.4h.434A29.573,29.573,0,0,0,15.5,9.137H13.061l2.205-2.205c-.093-.625-.208-1.229-.345-1.8L13.03,7.02V.987A2.732,2.732,0,0,0,11,0q-.274,0-.549.014a11.073,11.073,0,0,0-1.59.2V9.1L3.1,3.347a11.107,11.107,0,0,0-.984,1.165L5.8,8.2l.942.942H.16a10.973,10.973,0,0,0,.084,4.168H8.828L3.29,18.844a11.079,11.079,0,0,0,1.157.992l4.413-4.413V21.79a11.083,11.083,0,0,0,1.59.2c.183.009.366.014.549.014A2.732,2.732,0,0,0,13.03,21.013Z"/></g></g></svg>